<?xml version="1.0" encoding="UTF-8"?>
<svg width="18px" height="16px" viewBox="0 0 18 16" version="1.1" xmlns="http://www.w3.org/2000/svg" xmlns:xlink="http://www.w3.org/1999/xlink">
    <!-- Generator: Sketch 50 (54983) - http://www.bohemiancoding.com/sketch -->
    <title>icon_color</title>
    <desc>Created with Sketch.</desc>
    <defs></defs>
    <g id="icon_color" stroke="none" stroke-width="1" fill="none" fill-rule="evenodd">
        <path d="M8.72655642,16 C5.22606704,16 1.05920329,14.6193708 0.648719978,11.7506422 C0.413066739,10.1037417 2.07551516,9.35534979 2.07551516,8 C2.07551516,6.81012005 0.227717265,6.83865861 0.413066739,4.66599809 C0.648719978,1.90367847 5.03695865,0 8.72655642,0 C13.776017,0 17.8694136,3.581722 17.8694136,8 C17.8694136,12.418278 13.776017,16 8.72655642,16 Z M8.72655642,15 C13.2512273,15 16.8694136,11.834087 16.8694136,8 C16.8694136,4.16591297 13.2512273,1 8.72655642,1 C5.13629657,1 1.57217982,2.84345733 1.40944759,4.75099925 C1.35653107,5.37128499 1.48225205,5.62828838 1.91274703,6.02211975 C1.95739068,6.06296127 2.16552377,6.24758076 2.22322351,6.30049792 C2.78190753,6.81287408 3.07551516,7.28701433 3.07551516,8 C3.07551516,8.72526486 2.83584956,9.25963715 2.3228525,10.0075995 C2.2839355,10.0643415 2.2456322,10.1194802 2.17181284,10.2254861 C1.69834774,10.906676 1.57955731,11.1961059 1.63863732,11.608996 C1.91552764,13.5440885 5.08200036,15 8.72655642,15 Z M3.73273613,5.50889795 C3.29373663,4.8063519 3.69722536,3.76231993 4.63395342,3.17698728 C5.57068148,2.59165462 6.68592902,2.68667485 7.12492851,3.38922089 C7.563928,4.09176694 7.16043928,5.13579891 6.22371122,5.72113156 C5.28698315,6.30646422 4.17173562,6.21144399 3.73273613,5.50889795 Z M4.58078422,4.97897868 C4.68858418,5.15149467 5.18108794,5.19345649 5.69379195,4.87308347 C6.20649596,4.55271044 6.38468037,4.09165614 6.27688042,3.91914016 C6.16908046,3.74662417 5.6765767,3.70466235 5.16387269,4.02503537 C4.65116867,4.3454084 4.47298427,4.8064627 4.58078422,4.97897868 Z M14.9153966,9.17951993 C14.3631119,9.17951993 13.9153966,8.73180468 13.9153966,8.17951993 C13.9153966,7.62723518 14.3631119,7.17951993 14.9153966,7.17951993 C15.4676814,7.17951993 15.9153966,7.62723518 15.9153966,8.17951993 C15.9153966,8.73180468 15.4676814,9.17951993 14.9153966,9.17951993 Z M11.8980551,11.5089959 C11.6559494,11.0126056 11.8620878,10.4139364 12.358478,10.1718307 C12.8548683,9.92972499 13.4535375,10.1358633 13.6956432,10.6322536 C13.9377489,11.1286438 13.7316106,11.7273131 13.2352203,11.9694188 C12.7388301,12.2115245 12.1401608,12.0053861 11.8980551,11.5089959 Z M8.23081519,12.5090266 C8.36442496,11.9731471 8.90715328,11.647043 9.44303281,11.7806528 C9.97891234,11.9142626 10.3050164,12.4569909 10.1714066,12.9928704 C10.0377969,13.5287499 9.49506855,13.854854 8.95918902,13.7212442 C8.42330949,13.5876345 8.09720542,13.0449061 8.23081519,12.5090266 Z" fill="#999999" fill-rule="nonzero"></path>
    </g>
</svg>